REM DIRINDEX 1\3,1\2\4,1\2\5,1\2\6
REM DIRNAME cjc137,folder01,folder02,folder03,folder04,folder05
TITLE ""
FILE "156.mp3" MP3
  TRACK 01 AUDIO
    TITLE "0:"
    INDEX 01 00:00:00
  TRACK 02 AUDIO
    TITLE "4:cjc137_6992"
    INDEX 01 00:00:03
  TRACK 03 AUDIO
    TITLE "0:"
    INDEX 01 00:02:59
  TRACK 04 AUDIO
    TITLE "6:cjc137_6993"
    INDEX 01 00:02:71
  TRACK 05 AUDIO
    TITLE "0:"
    INDEX 01 00:05:14
  TRACK 06 AUDIO
    TITLE "5:cjc137_6994"
    INDEX 01 00:05:24
  TRACK 07 AUDIO
    TITLE "0:"
    INDEX 01 00:08:07
  TRACK 08 AUDIO
    TITLE "4:cjc137_6995"
    INDEX 01 00:09:22
  TRACK 09 AUDIO
    TITLE "0:"
    INDEX 01 00:10:53
  TRACK 10 AUDIO
    TITLE "6:cjc137_6996"
    INDEX 01 00:10:65
  TRACK 11 AUDIO
    TITLE "0:"
    INDEX 01 00:12:56
  TRACK 12 AUDIO
    TITLE "5:cjc137_6997"
    INDEX 01 00:12:69
  TRACK 13 AUDIO
    TITLE "0:"
    INDEX 01 00:14:27
  TRACK 14 AUDIO
    TITLE "4:cjc137_6998"
    INDEX 01 00:15:38
  TRACK 15 AUDIO
    TITLE "0:"
    INDEX 01 00:17:00
  TRACK 16 AUDIO
    TITLE "6:cjc137_6999"
    INDEX 01 00:17:06
  TRACK 17 AUDIO
    TITLE "0:"
    INDEX 01 00:18:35
  TRACK 18 AUDIO
    TITLE "5:cjc137_7000"
    INDEX 01 00:18:44
  TRACK 19 AUDIO
    TITLE "0:"
    INDEX 01 00:20:06
  TRACK 20 AUDIO
    TITLE "4:cjc137_7001"
    INDEX 01 00:21:13
  TRACK 21 AUDIO
    TITLE "0:"
    INDEX 01 00:22:60
  TRACK 22 AUDIO
    TITLE "6:cjc137_7002"
    INDEX 01 00:22:64
  TRACK 23 AUDIO
    TITLE "0:"
    INDEX 01 00:24:57
  TRACK 24 AUDIO
    TITLE "5:cjc137_7003"
    INDEX 01 00:24:61
  TRACK 25 AUDIO
    TITLE "0:"
    INDEX 01 00:26:34
  TRACK 26 AUDIO
    TITLE "4:cjc137_7004"
    INDEX 01 00:27:39
  TRACK 27 AUDIO
    TITLE "0:"
    INDEX 01 00:29:29
  TRACK 28 AUDIO
    TITLE "6:cjc137_7005"
    INDEX 01 00:29:36
  TRACK 29 AUDIO
    TITLE "0:"
    INDEX 01 00:31:45
  TRACK 30 AUDIO
    TITLE "5:cjc137_7006"
    INDEX 01 00:31:51
  TRACK 31 AUDIO
    TITLE "0:"
    INDEX 01 00:33:42
  TRACK 32 AUDIO
    TITLE "4:cjc137_7007"
    INDEX 01 00:34:49
  TRACK 33 AUDIO
    TITLE "0:"
    INDEX 01 00:36:15
  TRACK 34 AUDIO
    TITLE "6:cjc137_7008"
    INDEX 01 00:36:23
  TRACK 35 AUDIO
    TITLE "0:"
    INDEX 01 00:37:46
  TRACK 36 AUDIO
    TITLE "5:cjc137_7009"
    INDEX 01 00:37:52
  TRACK 37 AUDIO
    TITLE "0:"
    INDEX 01 00:39:17
  TRACK 38 AUDIO
    TITLE "4:cjc137_7010"
    INDEX 01 00:40:24
  TRACK 39 AUDIO
    TITLE "0:"
    INDEX 01 00:41:69
  TRACK 40 AUDIO
    TITLE "6:cjc137_7011"
    INDEX 01 00:42:02
  TRACK 41 AUDIO
    TITLE "0:"
    INDEX 01 00:43:35
  TRACK 42 AUDIO
    TITLE "5:cjc137_7012"
    INDEX 01 00:43:40
  TRACK 43 AUDIO
    TITLE "0:"
    INDEX 01 00:45:10
  TRACK 44 AUDIO
    TITLE "4:cjc137_7013"
    INDEX 01 00:46:19
  TRACK 45 AUDIO
    TITLE "0:"
    INDEX 01 00:48:16
  TRACK 46 AUDIO
    TITLE "6:cjc137_7014"
    INDEX 01 00:48:22
  TRACK 47 AUDIO
    TITLE "0:"
    INDEX 01 00:50:11
  TRACK 48 AUDIO
    TITLE "5:cjc137_7015"
    INDEX 01 00:50:17
  TRACK 49 AUDIO
    TITLE "0:"
    INDEX 01 00:52:16
  TRACK 50 AUDIO
    TITLE "4:cjc137_7016"
    INDEX 01 00:53:21
  TRACK 51 AUDIO
    TITLE "0:"
    INDEX 01 00:54:62
  TRACK 52 AUDIO
    TITLE "6:cjc137_7017"
    INDEX 01 00:54:66
  TRACK 53 AUDIO
    TITLE "0:"
    INDEX 01 00:56:29
  TRACK 54 AUDIO
    TITLE "5:cjc137_7018"
    INDEX 01 00:56:31
  TRACK 55 AUDIO
    TITLE "0:"
    INDEX 01 00:57:72
  TRACK 56 AUDIO
    TITLE "4:cjc137_7019"
    INDEX 01 00:59:00
  TRACK 57 AUDIO
    TITLE "0:"
    INDEX 01 01:01:42
  TRACK 58 AUDIO
    TITLE "6:cjc137_7020"
    INDEX 01 01:01:50
  TRACK 59 AUDIO
    TITLE "0:"
    INDEX 01 01:04:21
  TRACK 60 AUDIO
    TITLE "5:cjc137_7021"
    INDEX 01 01:04:29
  TRACK 61 AUDIO
    TITLE "0:"
    INDEX 01 01:06:71
  TRACK 62 AUDIO
    TITLE "4:cjc137_7022"
    INDEX 01 01:08:03
  TRACK 63 AUDIO
    TITLE "0:"
    INDEX 01 01:10:51
  TRACK 64 AUDIO
    TITLE "6:cjc137_7023"
    INDEX 01 01:10:59
  TRACK 65 AUDIO
    TITLE "0:"
    INDEX 01 01:12:13
  TRACK 66 AUDIO
    TITLE "5:cjc137_7024"
    INDEX 01 01:12:23
  TRACK 67 AUDIO
    TITLE "0:"
    INDEX 01 01:14:72
  TRACK 68 AUDIO
    TITLE "4:cjc137_7025"
    INDEX 01 01:16:05
  TRACK 69 AUDIO
    TITLE "0:"
    INDEX 01 01:18:00
  TRACK 70 AUDIO
    TITLE "6:cjc137_7026"
    INDEX 01 01:18:06
  TRACK 71 AUDIO
    TITLE "0:"
    INDEX 01 01:20:18
  TRACK 72 AUDIO
    TITLE "5:cjc137_7027"
    INDEX 01 01:20:24
  TRACK 73 AUDIO
    TITLE "0:"
    INDEX 01 01:22:21
  TRACK 74 AUDIO
    TITLE "4:cjc137_7028"
    INDEX 01 01:23:24
  TRACK 75 AUDIO
    TITLE "0:"
    INDEX 01 01:24:67
  TRACK 76 AUDIO
    TITLE "6:cjc137_7029"
    INDEX 01 01:25:00
  TRACK 77 AUDIO
    TITLE "0:"
    INDEX 01 01:26:74
  TRACK 78 AUDIO
    TITLE "5:cjc137_7030"
    INDEX 01 01:27:06
  TRACK 79 AUDIO
    TITLE "0:"
    INDEX 01 01:28:47
  TRACK 80 AUDIO
    TITLE "4:cjc137_7031"
    INDEX 01 01:29:56
  TRACK 81 AUDIO
    TITLE "0:"
    INDEX 01 01:30:71
  TRACK 82 AUDIO
    TITLE "6:cjc137_7032"
    INDEX 01 01:31:06
  TRACK 83 AUDIO
    TITLE "0:"
    INDEX 01 01:33:46
  TRACK 84 AUDIO
    TITLE "5:cjc137_7033"
    INDEX 01 01:33:52
  TRACK 85 AUDIO
    TITLE "0:"
    INDEX 01 01:34:69
  TRACK 86 AUDIO
    TITLE "4:cjc137_7034"
    INDEX 01 01:36:03
  TRACK 87 AUDIO
    TITLE "0:"
    INDEX 01 01:37:40
  TRACK 88 AUDIO
    TITLE "6:cjc137_7035"
    INDEX 01 01:37:46
  TRACK 89 AUDIO
    TITLE "0:"
    INDEX 01 01:39:47
  TRACK 90 AUDIO
    TITLE "5:cjc137_7036"
    INDEX 01 01:39:53
  TRACK 91 AUDIO
    TITLE "0:"
    INDEX 01 01:41:14
  TRACK 92 AUDIO
    TITLE "4:cjc137_7037"
    INDEX 01 01:42:22
  TRACK 93 AUDIO
    TITLE "0:"
    INDEX 01 01:43:52
  TRACK 94 AUDIO
    TITLE "6:cjc137_7038"
    INDEX 01 01:43:66
  TRACK 95 AUDIO
    TITLE "0:"
    INDEX 01 01:45:36
  TRACK 96 AUDIO
    TITLE "5:cjc137_7039"
    INDEX 01 01:45:42
  TRACK 97 AUDIO
    TITLE "0:"
    INDEX 01 01:46:74
  TRACK 98 AUDIO
    TITLE "4:cjc137_7040"
    INDEX 01 01:48:14
  TRACK 99 AUDIO
    TITLE "0:"
    INDEX 01 01:49:65
  TRACK 100 AUDIO
    TITLE "6:cjc137_7041"
    INDEX 01 01:49:71
  TRACK 101 AUDIO
    TITLE "0:"
    INDEX 01 01:52:16
  TRACK 102 AUDIO
    TITLE "5:cjc137_7042"
    INDEX 01 01:52:26
  TRACK 103 AUDIO
    TITLE "0:"
    INDEX 01 01:53:74
  TRACK 104 AUDIO
    TITLE "4:cjc137_7043"
    INDEX 01 01:55:07
  TRACK 105 AUDIO
    TITLE "0:"
    INDEX 01 01:56:67
  TRACK 106 AUDIO
    TITLE "6:cjc137_7044"
    INDEX 01 01:57:02
  TRACK 107 AUDIO
    TITLE "0:"
    INDEX 01 01:58:52
  TRACK 108 AUDIO
    TITLE "5:cjc137_7045"
    INDEX 01 01:58:58
  TRACK 109 AUDIO
    TITLE "0:"
    INDEX 01 02:00:43
  TRACK 110 AUDIO
    TITLE "4:cjc137_7046"
    INDEX 01 02:01:52
  TRACK 111 AUDIO
    TITLE "0:"
    INDEX 01 02:03:08
  TRACK 112 AUDIO
    TITLE "6:cjc137_7047"
    INDEX 01 02:03:14
  TRACK 113 AUDIO
    TITLE "0:"
    INDEX 01 02:05:09
  TRACK 114 AUDIO
    TITLE "5:cjc137_7048"
    INDEX 01 02:05:15
  TRACK 115 AUDIO
    TITLE "0:"
    INDEX 01 02:06:42
  TRACK 116 AUDIO
    TITLE "4:cjc137_7049"
    INDEX 01 02:07:55
  TRACK 117 AUDIO
    TITLE "0:"
    INDEX 01 02:09:21
  TRACK 118 AUDIO
    TITLE "6:cjc137_7050"
    INDEX 01 02:09:30
  TRACK 119 AUDIO
    TITLE "0:"
    INDEX 01 02:10:69
  TRACK 120 AUDIO
    TITLE "5:cjc137_7051"
    INDEX 01 02:11:06
  TRACK 121 AUDIO
    TITLE "0:"
    INDEX 01 02:12:44
  TRACK 122 AUDIO
    TITLE "4:cjc137_7052"
    INDEX 01 02:13:56
  TRACK 123 AUDIO
    TITLE "0:"
    INDEX 01 02:15:11
  TRACK 124 AUDIO
    TITLE "6:cjc137_7053"
    INDEX 01 02:15:19
  TRACK 125 AUDIO
    TITLE "0:"
    INDEX 01 02:16:54
  TRACK 126 AUDIO
    TITLE "5:cjc137_7054"
    INDEX 01 02:16:58
  TRACK 127 AUDIO
    TITLE "0:"
    INDEX 01 02:18:12
  TRACK 128 AUDIO
    TITLE "4:cjc137_7055"
    INDEX 01 02:19:23
  TRACK 129 AUDIO
    TITLE "0:"
    INDEX 01 02:21:12
  TRACK 130 AUDIO
    TITLE "6:cjc137_7056"
    INDEX 01 02:21:22
  TRACK 131 AUDIO
    TITLE "0:"
    INDEX 01 02:22:72
  TRACK 132 AUDIO
    TITLE "5:cjc137_7057"
    INDEX 01 02:23:05
  TRACK 133 AUDIO
    TITLE "0:"
    INDEX 01 02:24:71
